<svg id="Layer_1" data-name="Layer 1" xmlns="http://www.w3.org/2000/svg" viewBox="0 0 512 512"><title>wedding-clothes</title><g id="wedding_clothes" data-name="wedding clothes"><g id="back"><rect width="512" height="512" fill="#f05354"/></g><g id="icon"><path d="M155.31,187.28c-13,21.78-27.87,51.34-41,108.65-13.15,57.53-10.27,74.44-10.27,74.44s.32,10.89,13.08,10c8.78-.64,12.94,1.45,17.19,3.81,6.06,3.36,10.55,4.75,20.12,2.86s14.83.49,20.48,2.54a39.38,39.38,0,0,0,26.7,0c5.65-2,10.93-4.44,20.48-2.54s14.07.5,20.11-2.86c4.25-2.36,8.42-4.45,17.2-3.81,12.76.91,13.08-10,13.08-10s2.87-16.91-10.27-74.44c-13.08-57.32-28-86.88-41-108.65" fill="#fff"/><path d="M189.41,371.84c-21.91.43-85.32-14.41-85.32-14.41v12.95s.32,10.89,13.08,10c8.78-.64,12.94,1.45,17.19,3.81,6.06,3.36,10.55,4.75,20.12,2.86s14.83.49,20.48,2.54a39.38,39.38,0,0,0,26.7,0c5.65-2,10.93-4.44,20.48-2.54s14.07.5,20.11-2.86c4.25-2.36,8.42-4.45,17.2-3.81,12.76.91,13.08-10,13.08-10l-.2-15.65S210.73,371.44,189.41,371.84Z" fill="#ffc2c1"/><path d="M187.36,395.64a44.21,44.21,0,0,1-13.67-2.57l-1.34-.49c-5-1.86-9.37-3.46-17.16-1.91-10.45,2.08-15.83.53-22.65-3.25-3.65-2-7.1-3.95-15.11-3.35-5.18.38-9.35-.85-12.43-3.63a14.83,14.83,0,0,1-4.63-9.69c-.33-2.43-2.12-21.08,10.35-75.64,13.1-57.4,28.27-87.68,41.39-109.73a3.72,3.72,0,1,1,6.4,3.8c-12.82,21.56-27.66,51.19-40.53,107.58-12.69,55.52-10.25,72.85-10.22,73a4.33,4.33,0,0,1,0,.49h0A7.51,7.51,0,0,0,110,375c1.51,1.34,3.82,1.9,6.85,1.69,9.44-.69,14.31,1.52,19.26,4.26,5.57,3.09,9.25,4.11,17.59,2.47,9.85-2,15.87.26,21.19,2.22l1.28.47a36.72,36.72,0,0,0,11.87,2.12h.42a36.66,36.66,0,0,0,11.88-2.12l1.28-.47c5.32-2,11.35-4.19,21.19-2.21,8.34,1.64,12,.63,17.57-2.46,5-2.75,9.82-5,19.28-4.27,3.07.22,5.39-.36,6.9-1.73a7.45,7.45,0,0,0,2.19-4.64,3.82,3.82,0,0,1,.05-.52c0-.14,2.46-17.47-10.23-73-12.86-56.36-27.71-86-40.53-107.58a3.72,3.72,0,1,1,6.4-3.8c13.12,22.07,28.31,52.36,41.39,109.73,12.46,54.55,10.67,73.21,10.34,75.64a14.79,14.79,0,0,1-4.62,9.69c-3.08,2.79-7.27,4-12.43,3.64-8-.59-11.47,1.33-15.13,3.35-6.81,3.79-12.19,5.33-22.64,3.25-7.78-1.54-12.13.05-17.16,1.9l-1.33.49a42.22,42.22,0,0,1-14.61,2.56Z" fill="#393939"/><path d="M187.35,375.59A44.12,44.12,0,0,1,173.69,373l-1.32-.49c-5-1.86-9.38-3.45-17.17-1.91-10.46,2.08-15.83.53-22.65-3.25-3.64-2-7.08-3.92-15.12-3.35-5.34.4-9.49-.87-12.35-3.75a13.18,13.18,0,0,1-3.58-9.77,3.72,3.72,0,0,1,7.43.53,5.83,5.83,0,0,0,1.47,4c1.58,1.55,4.39,1.67,6.5,1.54,9.46-.7,14.33,1.53,19.26,4.26,5.57,3.09,9.25,4.11,17.59,2.47,9.85-2,15.88.26,21.2,2.22l1.27.47a35.73,35.73,0,0,0,11.87,2.12h.42A36.56,36.56,0,0,0,200.39,366l1.27-.47c5.32-2,11.36-4.18,21.19-2.22,8.34,1.66,12,.63,17.57-2.46,4.95-2.74,9.83-5,19.27-4.27,2.59.16,4.45-.33,5.71-1.56,2-2,2.28-5.62,2.22-6.86a3.72,3.72,0,0,1,7.43-.45c.05.79.35,7.88-4.39,12.58-2,1.94-5.56,4.14-11.51,3.72-8-.57-11.48,1.33-15.12,3.35-6.81,3.79-12.19,5.33-22.64,3.25-7.78-1.55-12.13,0-17.17,1.91l-1.32.48a42.37,42.37,0,0,1-14.61,2.56Z" fill="#393939"/><path d="M156.26,185.17a91.41,91.41,0,0,1,21.64,12.67,3.08,3.08,0,0,1,1.07.83,84.52,84.52,0,0,1,9.33,8.72,83.23,83.23,0,0,1,9.33-8.72,5.27,5.27,0,0,1,1.06-.83,91.44,91.44,0,0,1,21.63-12.67c-9.25-19.16-4.59-33.36-4.59-33.36l22.12-9.69a31.67,31.67,0,0,0-10.49-22.41,7.06,7.06,0,0,1,.18,1.24,6.45,6.45,0,0,1-6.11,6.75,6.44,6.44,0,0,1-3.91-1.08,6.43,6.43,0,0,1-10.71,4.07,2.63,2.63,0,0,1-.29-.29,6.38,6.38,0,0,1-1.5,2.87,6.31,6.31,0,0,1-4.44,2.11,6.45,6.45,0,0,1-6-3.45,6.46,6.46,0,0,1-6.57,4.9h0a6.31,6.31,0,0,1-1.28-.2,3.79,3.79,0,0,1-.45-.14l-.15,0-.57-.24h0l-.5-.27,0,0-.38-.27-.13-.09-.27-.22-.21-.17a1.34,1.34,0,0,0-.15-.16l-.29-.29,0-.06a6.4,6.4,0,0,1-1.44-2.74,6.43,6.43,0,0,1-12-1.52,4.07,4.07,0,0,1-.29.29,6.42,6.42,0,0,1-9.1-.46,6.32,6.32,0,0,1-1.61-3.61A6.44,6.44,0,0,1,149,121a7.59,7.59,0,0,1,.19-1.24,31.66,31.66,0,0,0-10.48,22.41l22.12,9.69S165.51,166,156.26,185.17Z" fill="#fff"/><path d="M188.3,211.11a3.73,3.73,0,0,1-2.76-1.23,80.42,80.42,0,0,0-8.91-8.32,3.91,3.91,0,0,1-.33-.3c-.21-.2.33.2,1.29.28a3.69,3.69,0,0,1-2-.78,87.21,87.21,0,0,0-20.76-12.15,3.72,3.72,0,0,1-1.94-5.07c6.75-14,5.54-25.14,4.77-29.08l-20.43-8.95A3.72,3.72,0,0,1,135,142a35.42,35.42,0,0,1,11.73-25.06,3.72,3.72,0,0,1,6.1,3.63,4,4,0,0,0-.1.64,2.72,2.72,0,0,0,2.58,2.79,2.62,2.62,0,0,0,1.67-.46,3.72,3.72,0,0,1,5.77,2.71,2.61,2.61,0,0,0,.66,1.49,2.75,2.75,0,0,0,1.91.91,2.86,2.86,0,0,0,1.94-.71,3.72,3.72,0,0,1,6.42,1.62,2.71,2.71,0,0,0,5,.64,3.72,3.72,0,0,1,6.91.82,2.7,2.7,0,0,0,.59,1.15l.09.11.15.16h0l.14.11.14.09.45.27.41.13a2.46,2.46,0,0,0,.52.08,2.73,2.73,0,0,0,2.77-2.05,3.72,3.72,0,0,1,6.91-.86,2.72,2.72,0,0,0,4.41.6,2.69,2.69,0,0,0,.65-1.22,3.72,3.72,0,0,1,6.36-1.7,2.63,2.63,0,0,0,2,.77,2.7,2.7,0,0,0,2.53-2.41,3.72,3.72,0,0,1,5.76-2.7,2.71,2.71,0,0,0,3.52-.41,2.69,2.69,0,0,0,.71-2,3.26,3.26,0,0,0-.09-.57,3.72,3.72,0,0,1,6.09-3.65A35.36,35.36,0,0,1,241.57,142a3.72,3.72,0,0,1-2.23,3.55l-20.43,8.95c-.76,3.92-2,15.09,4.77,29.08a3.73,3.73,0,0,1-1.95,5.07A87.34,87.34,0,0,0,201,200.77a3.92,3.92,0,0,1-.42.29l-.34.28a82.41,82.41,0,0,0-9.16,8.53,3.72,3.72,0,0,1-2.76,1.23Zm-6.82-15.2c2.82,2.29,5.11,4.41,6.82,6.1a93.4,93.4,0,0,1,7-6.23,10.94,10.94,0,0,1,1.36-1.06,95.62,95.62,0,0,1,18.74-11.45c-7.65-18.49-3.39-32-3.2-32.61a3.72,3.72,0,0,1,2-2.25l19.7-8.63a27.56,27.56,0,0,0-4.72-12.37q-.27.35-.57.69a10,10,0,0,1-7,3.33,10.82,10.82,0,0,1-1.88-.08,10.68,10.68,0,0,1-1,1.38,10.14,10.14,0,0,1-7,3.35,10.33,10.33,0,0,1-3.71-.5l-.18.2a10,10,0,0,1-7,3.32,10.27,10.27,0,0,1-5.49-1.31l-.19.17a10.11,10.11,0,0,1-7.29,2.59,10.38,10.38,0,0,1-2-.31,7.52,7.52,0,0,1-.8-.25,10.33,10.33,0,0,1-1-.4l-1.54-.92c-.08-.06-.29-.21-.37-.28l-.33-.27-.36-.33a10.38,10.38,0,0,1-5.5,1.31,10.16,10.16,0,0,1-7.19-3.52,10,10,0,0,1-3.68.51,10.19,10.19,0,0,1-7-3.34,10.08,10.08,0,0,1-1.06-1.39,10.26,10.26,0,0,1-1.9.08,10.1,10.1,0,0,1-7-3.33c-.2-.22-.38-.44-.56-.67a27.58,27.58,0,0,0-4.72,12.36l19.7,8.63a3.71,3.71,0,0,1,2,2.25c.2.6,4.45,14.11-3.21,32.6a95.64,95.64,0,0,1,18.67,11.4A7.54,7.54,0,0,1,181.47,195.91Zm-3.58,5.66h0Zm0,0h0Zm0,0h0Zm0,0h0Zm0,0h0Zm0,0h0Zm-.25,0h0Z" fill="#393939"/><path d="M344.47,327.14a12.65,12.65,0,0,1-6.27,6.14l-25.86,10.17c-4.14,1.65-8-.64-8-5.08V302c0-4.44,3.82-6.73,8-5.08L338,307.05a12.88,12.88,0,0,1,6.38,6.16" fill="#fff"/><path d="M309.68,347.72a9,9,0,0,1-5.11-1.54,9.21,9.21,0,0,1-3.91-7.81V302a9.21,9.21,0,0,1,3.91-7.81,9.7,9.7,0,0,1,9.15-.73l25.64,10.17a16.51,16.51,0,0,1,8.35,8,3.72,3.72,0,1,1-6.68,3.29,9.15,9.15,0,0,0-4.42-4.35L311,300.34a2.49,2.49,0,0,0-2.22,0,2,2,0,0,0-.65,1.65v36.41a2,2,0,0,0,.65,1.65,2.5,2.5,0,0,0,2.22,0l25.88-10.18a8.94,8.94,0,0,0,4.29-4.32,3.72,3.72,0,0,1,6.68,3.3,16.43,16.43,0,0,1-8.23,7.95l-25.87,10.18A10.89,10.89,0,0,1,309.68,347.72Z" fill="#393939"/><path d="M359.1,327.14a12.64,12.64,0,0,0,6.27,6.14l25,10.17c4.14,1.65,7.07-.64,7.07-5.08V302c0-4.44-2.93-6.73-7.07-5.08l-25.2,10.17a12.47,12.47,0,0,0-6.16,6.16" fill="#fff"/><path d="M392.89,347.72a10.61,10.61,0,0,1-3.93-.8l-25-10.19a16.39,16.39,0,0,1-8.2-7.94,3.72,3.72,0,0,1,6.68-3.29,8.91,8.91,0,0,0,4.3,4.32l25,10.19a2.06,2.06,0,0,0,1.46.2c.12-.08.48-.6.48-1.84V302c0-1.24-.35-1.75-.48-1.84a2.14,2.14,0,0,0-1.49.21l-25.18,10.17a8.78,8.78,0,0,0-4.22,4.35,3.72,3.72,0,1,1-6.68-3.29,16.12,16.12,0,0,1,8.13-8l25.18-10.17a8.84,8.84,0,0,1,8.44.54c2.42,1.64,3.75,4.48,3.75,8v36.41c0,3.52-1.33,6.36-3.75,8A7.9,7.9,0,0,1,392.89,347.72Z" fill="#393939"/><path d="M361.89,320.16a10.11,10.11,0,1,1-10.11-10.11A10.11,10.11,0,0,1,361.89,320.16Z" fill="#ffc2c1"/><path d="M351.79,333.63a13.46,13.46,0,1,1,13.46-13.47A13.48,13.48,0,0,1,351.79,333.63Zm0-20.22a6.76,6.76,0,1,0,6.76,6.75A6.77,6.77,0,0,0,351.79,313.41Z" fill="#393939"/><path d="M350.89,254.63c-21.44,0-38.33-5.9-39-13.52,0-.16-.07-.32-.09-.48-.2-1.41-.42-2.83-.66-4.24l-.09-.33v-.15c-.87-5-1.92-9.82-3.11-15.17a227.59,227.59,0,0,1-4.22-23l-1-8.4,7.13,4.55c8.53,5.44,24.27,8.83,41.07,8.83s32.53-3.38,41.07-8.83l7.13-4.55-1,8.4a227.5,227.5,0,0,1-4.22,23c-1.21,5.45-2.28,10.37-3.16,15.44-.27,1.55-.5,3-.71,4.48l-.09.45c-.71,7.63-17.6,13.52-39,13.52Z" fill="#fff"/><path d="M350.89,268.67c-22.72,0-38-5.2-38-12.93,0-1.44,0-2.85-.11-4.26l-.33-7.13,6.26,3.44c7,3.84,18.73,6.05,32.16,6.05s25.15-2.21,32.16-6.05l6.26-3.44-.32,7.13c-.06,1.4-.11,2.82-.11,4.26,0,7.74-15.27,12.93-38,12.93Z" fill="#ffc2c1"/><path d="M350.89,203.52c-26.47,0-48-8-48-17.95s21.54-17.94,48-17.94,48,8.05,48,17.94-21.53,17.95-48,17.95Z" fill="#fff"/><path d="M350.89,283.71c-32,0-58-12.55-58-28,0-7.31,9.47-14.45,13.55-17.19l5.35-3.59.86,6.37a105.48,105.48,0,0,1,1.09,14.4c0,5.85,11.64,12.13,37.19,12.13s37.19-6.28,37.19-12.13a104.51,104.51,0,0,1,1.09-14.39L390,235l5.35,3.58c4.08,2.73,13.55,9.88,13.55,17.18,0,15.42-26,28-58,28Z" fill="#fff"/><path d="M350.89,287c-34.41,0-61.36-13.75-61.36-31.29,0-8.9,10.39-17.75,20.11-23.07a3.72,3.72,0,1,1,3.57,6.53C304,244.27,297,251.37,297,255.73c0,11.52,21.66,23.84,53.91,23.84s53.91-12.33,53.91-23.84c0-4.36-7-11.47-16.25-16.53a3.72,3.72,0,1,1,3.57-6.53c9.73,5.32,20.12,14.17,20.12,23.07C412.25,273.28,385.3,287,350.89,287Z" fill="#393939"/><path d="M350.89,272c-25.48,0-41.31-6.23-41.31-16.25,0-12.12-2.39-22.88-4.92-34.27s-5.1-23-5.1-35.89a3.72,3.72,0,1,1,7.45,0c0,12.12,2.39,22.88,4.92,34.28s5.1,23,5.1,35.89c0,3,10.23,8.81,33.87,8.81s33.86-5.83,33.86-8.81c0-12.93,2.59-24.6,5.1-35.89s4.92-22.16,4.92-34.28a3.72,3.72,0,1,1,7.45,0c0,12.94-2.59,24.61-5.1,35.89s-4.92,22.16-4.92,34.27C392.2,265.76,376.37,272,350.89,272Z" fill="#393939"/><path d="M350.89,258c-25,0-42.39-7.13-42.39-17.35a3.72,3.72,0,0,1,7.45,0c0,2.82,10.39,9.9,34.95,9.9s34.95-7.08,34.95-9.9a3.72,3.72,0,0,1,7.45,0C393.29,250.82,375.85,258,350.89,258Z" fill="#393939"/><path d="M350.89,206.84c-24.89,0-51.33-7.45-51.33-21.27s26.45-21.26,51.33-21.26,51.33,7.45,51.33,21.26S375.78,206.84,350.89,206.84Zm0-35.08c-26.79,0-43.89,8.18-43.89,13.81s17.1,13.82,43.89,13.82,43.88-8.19,43.88-13.82S377.68,171.76,350.89,171.76Z" fill="#393939"/></g></g></svg>